<?xml version="1.0" encoding="UTF-8" standalone="no"?>
<!-- Created with Inkscape (http://www.inkscape.org/) -->

<svg
   xmlns:dc="http://purl.org/dc/elements/1.1/"
   xmlns:cc="http://creativecommons.org/ns#"
   xmlns:rdf="http://www.w3.org/1999/02/22-rdf-syntax-ns#"
   xmlns:svg="http://www.w3.org/2000/svg"
   xmlns="http://www.w3.org/2000/svg"
   xmlns:xlink="http://www.w3.org/1999/xlink"
   xmlns:sodipodi="http://sodipodi.sourceforge.net/DTD/sodipodi-0.dtd"
   xmlns:inkscape="http://www.inkscape.org/namespaces/inkscape"
   width="210mm"
   height="297mm"
   viewBox="0 0 210 297"
   version="1.1"
   id="svg8"
   inkscape:version="0.92.3 (2405546, 2018-03-11)"
   sodipodi:docname="icon.svg">
  <defs
     id="defs2">
    <linearGradient
       inkscape:collect="always"
       id="linearGradient821">
      <stop
         style="stop-color:#0000aa;stop-opacity:1"
         offset="0"
         id="stop817" />
      <stop
         style="stop-color:#ff0066;stop-opacity:1"
         offset="1"
         id="stop819" />
    </linearGradient>
    <linearGradient
       inkscape:collect="always"
       xlink:href="#linearGradient821"
       id="linearGradient823"
       x1="256.4248"
       y1="-32.00877"
       x2="-78.020294"
       y2="326.43073"
       gradientUnits="userSpaceOnUse" />
  </defs>
  <sodipodi:namedview
     id="base"
     pagecolor="#ffffff"
     bordercolor="#666666"
     borderopacity="1.0"
     inkscape:pageopacity="0.0"
     inkscape:pageshadow="2"
     inkscape:zoom="0.26"
     inkscape:cx="29.908165"
     inkscape:cy="418.20494"
     inkscape:document-units="mm"
     inkscape:current-layer="layer1"
     showgrid="false"
     inkscape:window-width="1299"
     inkscape:window-height="713"
     inkscape:window-x="67"
     inkscape:window-y="27"
     inkscape:window-maximized="1" />
  <metadata
     id="metadata5">
    <rdf:RDF>
      <cc:Work
         rdf:about="">
        <dc:format>image/svg+xml</dc:format>
        <dc:type
           rdf:resource="http://purl.org/dc/dcmitype/StillImage" />
        <dc:title />
      </cc:Work>
    </rdf:RDF>
  </metadata>
  <g
     inkscape:label="Layer 1"
     inkscape:groupmode="layer"
     id="layer1">
    <path
       id="path869"
       style="color:#000000;font-style:normal;font-variant:normal;font-weight:normal;font-stretch:normal;font-size:medium;line-height:normal;font-family:sans-serif;font-variant-ligatures:normal;font-variant-position:normal;font-variant-caps:normal;font-variant-numeric:normal;font-variant-alternates:normal;font-feature-settings:normal;text-indent:0;text-align:start;text-decoration:none;text-decoration-line:none;text-decoration-style:solid;text-decoration-color:#000000;letter-spacing:normal;word-spacing:normal;text-transform:none;writing-mode:lr-tb;direction:ltr;text-orientation:mixed;dominant-baseline:auto;baseline-shift:baseline;text-anchor:start;white-space:normal;shape-padding:0;clip-rule:nonzero;display:inline;overflow:visible;visibility:visible;opacity:1;isolation:auto;mix-blend-mode:normal;color-interpolation:sRGB;color-interpolation-filters:linearRGB;solid-color:#000000;solid-opacity:1;vector-effect:none;fill:url(#linearGradient823);fill-opacity:1;fill-rule:nonzero;stroke:none;stroke-width:4.77749634;stroke-linecap:round;stroke-linejoin:miter;stroke-miterlimit:4;stroke-dasharray:none;stroke-dashoffset:0;stroke-opacity:1;color-rendering:auto;image-rendering:auto;shape-rendering:auto;text-rendering:auto;enable-background:accumulate"
       d="m 207.64487,224.24228 c -0.62066,0.0124 -1.21239,0.26453 -1.64984,0.70511 l -30.6259,33.30226 c -2.33664,2.2262 33.96759,-29.88788 33.96759,-29.88788 1.57905,-1.50208 0.48713,-4.16082 -1.69185,-4.11949 z m -5.17092,-16.22362 c -0.62067,0.0124 -1.2124,0.26454 -1.64984,0.70512 l -41.73082,44.16644 c -2.33776,2.22614 45.07136,-40.75092 45.07136,-40.75092 1.58069,-1.50155 0.48911,-4.16203 -1.6907,-4.12064 z m -5.67625,-15.72854 c -0.62064,0.0124 -1.21236,0.26453 -1.64981,0.70512 l -45.71634,48.06452 c -2.33775,2.22614 49.05688,-44.65015 49.05688,-44.65015 1.57858,-1.50167 0.48768,-4.15973 -1.69073,-4.11949 z m -5.67619,-15.72969 c -0.62069,0.0124 -1.21242,0.26453 -1.64984,0.70515 l -43.92457,46.31188 c -2.38073,2.2253 47.26511,-42.89751 47.26511,-42.89751 1.57865,-1.50167 0.48772,-4.15979 -1.6907,-4.11952 z m -5.72958,-15.87612 c -0.62051,0.0124 -1.21221,0.26392 -1.64984,0.70397 l -41.9318,44.36342 c -2.38011,2.22529 45.27234,-40.94793 45.27234,-40.94793 1.57858,-1.50167 0.48768,-4.15973 -1.6907,-4.11946 z m -5.67622,-15.72969 c -0.62051,0.0124 -1.21224,0.26391 -1.64987,0.704 l -42.76295,45.17699 c -2.33775,2.22613 46.10352,-41.76153 46.10352,-41.76153 1.57858,-1.50167 0.48768,-4.15973 -1.6907,-4.11946 z m -5.67625,-15.72854 c -0.62051,0.0124 -1.21217,0.26391 -1.64981,0.704 l -58.84125,60.90553 c -2.33775,2.22613 62.18179,-57.49007 62.18179,-57.49007 1.57862,-1.50168 0.48766,-4.15976 -1.69073,-4.11946 z M 59.729341,219.77193 c -0.62051,0.0124 -1.21221,0.26392 -1.649836,0.70397 l -35.166673,37.74537 c -2.337748,2.22613 38.507228,-34.32984 38.507228,-34.32984 1.578592,-1.50168 0.487674,-4.15977 -1.690719,-4.1195 z m 68.167979,-66.68737 c -0.62051,0.0124 -1.21217,0.26391 -1.64981,0.70403 l -34.453596,37.04702 c -2.336639,2.22616 37.794136,-33.63156 37.794136,-33.63156 1.57859,-1.50167 0.48769,-4.15973 -1.69073,-4.11949 z m 40.46593,-39.58929 c -0.62067,0.0124 -1.2124,0.26453 -1.64984,0.70512 l -35.95013,38.51177 c -2.33775,2.22614 39.29181,-35.09628 39.29181,-35.09628 1.58116,-1.50192 0.48853,-4.16309 -1.69184,-4.12061 z M 64.887791,193.44262 c -0.620675,0.0124 -1.212396,0.26454 -1.64984,0.70515 L 6.7266954,252.77326 c -2.3374152,2.22617 59.8518106,-55.21 59.8518106,-55.21 1.580691,-1.50155 0.489084,-4.16203 -1.690715,-4.12064 z m 41.255069,-40.35918 c -0.62066,0.0124 -1.21239,0.26454 -1.64984,0.70515 l -34.453601,37.04702 c -2.337856,2.22613 37.794141,-33.63156 37.794141,-33.63156 1.58067,-1.50155 0.48908,-4.16196 -1.6907,-4.12061 z m 56.5442,-55.316744 c -0.6207,0.01242 -1.21239,0.264535 -1.64987,0.705118 l -35.94901,38.510656 c -2.33884,2.22614 39.28958,-35.09628 39.28958,-35.09628 1.57861,-1.50168 0.48768,-4.159765 -1.6907,-4.119494 z M 84.388373,153.08344 c -0.620665,0.0124 -1.212393,0.26454 -1.649839,0.70515 l -85.3908313,86.87828 c -2.3378561,2.22614 88.7313703,-83.46282 88.7313703,-83.46282 1.580663,-1.50155 0.489081,-4.16196 -1.6907,-4.12061 z M 157.01196,82.037005 c -0.6211,0.01242 -1.21326,0.264225 -1.65099,0.705149 l -35.94844,38.510066 c -2.33826,2.22691 39.29013,-35.094575 39.29013,-35.094575 1.5807,-1.50155 0.48911,-4.162028 -1.6907,-4.12064 z M 73.014353,142.92782 c -0.620672,0.0124 -1.212396,0.26453 -1.64984,0.70512 l -74.3846981,76.11173 c -2.3378593,2.22617 77.7263961,-72.69627 77.7263961,-72.69627 1.581098,-1.50193 0.488491,-4.16306 -1.691858,-4.12058 z M 151.33572,66.307345 c -0.62067,0.01242 -1.21237,0.264535 -1.64981,0.705118 l -35.94904,38.510097 c -2.37998,2.2253 39.29072,-35.095724 39.29072,-35.095724 1.57902,-1.502078 0.4871,-4.160817 -1.69187,-4.119491 z M 84.995843,109.92534 c -0.62051,0.0124 -1.212207,0.26392 -1.64984,0.704 L 8.0290805,187.65286 C 5.691333,189.87903 86.686574,114.0448 86.686574,114.0448 c 1.578583,-1.50167 0.487683,-4.15973 -1.690731,-4.11946 z M 145.65953,50.578803 c -0.62051,0.01242 -1.21224,0.263914 -1.64984,0.703969 L 108.0618,89.792279 c -2.33807,2.226167 39.28843,-35.093985 39.28843,-35.093985 1.57861,-1.501706 0.48768,-4.159762 -1.6907,-4.119491 z M 96.976203,76.922865 c -0.62051,0.01242 -1.212207,0.263915 -1.64984,0.703969 L 19.079482,155.56104 c -2.337747,2.22617 79.587421,-74.518714 79.587421,-74.518714 1.578587,-1.501675 0.487683,-4.159731 -1.6907,-4.119461 z M 138.43224,36.366093 c -0.62066,0.01242 -1.21239,0.264536 -1.64984,0.70515 l -34.3957,36.990786 c -2.38066,2.225298 37.73627,-33.575295 37.73627,-33.575295 1.5807,-1.501551 0.48905,-4.162029 -1.69073,-4.120641 z M 127.52831,25.751722 c -0.62067,0.01242 -1.21236,0.264536 -1.64984,0.705118 l -95.749719,97.01239 c -2.337747,2.22613 99.090289,-93.598016 99.090289,-93.598016 1.57861,-1.501675 0.48768,-4.159762 -1.69073,-4.119492 z m -14.57148,-7.027435 c -0.62067,0.01149 -1.21239,0.26466 -1.64987,0.705125 L 41.179156,91.376264 c -2.337747,2.226168 73.468374,-68.531361 73.468374,-68.531361 1.58066,-1.501551 0.48908,-4.16201 -1.6907,-4.120616 z M 92.443424,17.510469 c -0.620697,0.0118 -1.212394,0.26466 -1.649871,0.705127 L 52.228422,59.284449 c -2.338083,2.226137 41.905699,-37.654485 41.905699,-37.654485 1.578613,-1.501688 0.487683,-4.15975 -1.690697,-4.119495 z"
       inkscape:connector-curvature="0" />
  </g>
</svg>
